<svg width="27" height="27" viewBox="0 0 27 27" fill="none" xmlns="http://www.w3.org/2000/svg">
<g clip-path="url(#clip0_105_792)">
<path d="M22.2282 20.3563L18.9614 17.099C20.0154 15.7562 20.5873 14.098 20.5852 12.391C20.5852 10.8707 20.1344 9.38458 19.2897 8.12052C18.4451 6.85646 17.2446 5.87124 15.8401 5.28946C14.4355 4.70768 12.89 4.55546 11.399 4.85205C9.9079 5.14864 8.53827 5.88072 7.46328 6.95571C6.38828 8.03071 5.6562 9.40033 5.35961 10.8914C5.06302 12.3825 5.21524 13.928 5.79703 15.3325C6.37881 16.7371 7.36402 17.9376 8.62808 18.7822C9.89214 19.6268 11.3783 20.0776 12.8985 20.0776C14.6056 20.0797 16.2638 19.5078 17.6066 18.4538L20.8638 21.7206C20.9531 21.8107 21.0594 21.8822 21.1765 21.9309C21.2936 21.9797 21.4192 22.0048 21.546 22.0048C21.6728 22.0048 21.7984 21.9797 21.9155 21.9309C22.0326 21.8822 22.1389 21.8107 22.2282 21.7206C22.3183 21.6313 22.3897 21.525 22.4385 21.408C22.4873 21.2909 22.5124 21.1653 22.5124 21.0384C22.5124 20.9116 22.4873 20.786 22.4385 20.6689C22.3897 20.5518 22.3183 20.4456 22.2282 20.3563ZM7.13358 12.391C7.13358 11.2508 7.47168 10.1362 8.10515 9.18813C8.73861 8.24009 9.63898 7.50118 10.6924 7.06484C11.7458 6.6285 12.9049 6.51434 14.0232 6.73678C15.1415 6.95922 16.1688 7.50828 16.975 8.31453C17.7812 9.12077 18.3303 10.148 18.5527 11.2663C18.7752 12.3846 18.661 13.5437 18.2247 14.5971C17.7884 15.6505 17.0494 16.5509 16.1014 17.1844C15.1534 17.8178 14.0388 18.156 12.8985 18.156C11.3696 18.156 9.90324 17.5486 8.8221 16.4674C7.74095 15.3863 7.13358 13.9199 7.13358 12.391Z" fill="white"/>
</g>
<defs>
<clipPath id="clip0_105_792">
<rect width="25.9507" height="25.9507" fill="white" transform="translate(0.886719 0.379395)"/>
</clipPath>
</defs>
</svg>
